PathFileType	4	(X/Y/Z)	intermediate\S1_nor_med_left\tmpk2z6hi7d.trc
DataRate	CameraRate	NumFrames	NumMarkers	Units	OrigDataRate	OrigDataStartFrame	OrigNumFrames
250.0	250.0	6	18	mm	250.0	3839	7677
Frame#	Time	c7			r_should			l_should			clavicle			r_upa			r_elb_l			r_elb_m			r_low			r_wri_l			r_wri_m			r_met			l_upa			l_elb_l			l_elb_m			l_low			l_wri_l			l_wri_m			l_met			
		X	Y	Z	X	Y	Z	X	Y	Z	X	Y	Z	X	Y	Z	X	Y	Z	X	Y	Z	X	Y	Z	X	Y	Z	X	Y	Z	X	Y	Z	X	Y	Z	X	Y	Z	X	Y	Z	X	Y	Z	X	Y	Z	X	Y	Z	X	Y	Z	
3839	15.352000	917.950684	1420.377686	63.739948	981.880066	1358.748901	254.240417	982.664734	1335.439453	-120.867355	1052.452271	1296.128784	67.968147	982.930969	1146.274292	305.479645	1006.253967	1044.404419	313.363251	931.794312	1025.995239	241.789597	959.110596	915.400513	328.969666	1037.600952	824.121155	302.673248	969.233032	809.483582	320.306030	1072.778076	749.669312	321.647125	994.142700	1108.195190	-131.466003	1002.253052	1024.417358	-141.913879	nan	nan	nan	982.366821	876.078186	-108.801163	1048.982910	794.570068	-136.489059	1015.719666	780.682190	-73.928665	1038.417358	724.048218	-158.378540	
3840	15.356000	917.927368	1420.461670	63.894257	981.893433	1358.713379	254.321365	982.403381	1335.512573	-120.780167	1052.330322	1296.115601	67.988602	982.945862	1146.234131	305.528595	1006.278992	1044.356079	313.393616	931.782959	1025.965820	241.846893	959.132202	915.358093	328.988861	1037.610474	824.077393	302.678925	969.249207	809.428528	320.316498	1072.769653	749.599182	321.660156	993.785522	1108.274536	-131.456650	1001.899231	1024.490601	-141.913269	nan	nan	nan	982.260986	876.130249	-108.776421	1049.015747	794.749023	-136.466873	1015.835388	780.808044	-73.878479	1038.563232	724.201355	-158.328949	
3841	15.360000	917.912415	1420.555176	64.045952	981.903564	1358.679810	254.401627	982.131897	1335.588989	-120.686729	1052.208008	1296.109131	68.004379	982.962402	1146.190063	305.572449	1006.305481	1044.317627	313.436035	931.767334	1025.942261	241.903336	959.149109	915.316467	329.009583	1037.620117	824.038879	302.681000	969.259888	809.378967	320.325806	1072.758911	749.520081	321.678009	993.424866	1108.356567	-131.449020	1001.526978	1024.565674	-141.927094	nan	nan	nan	982.167053	876.183838	-108.747261	1049.070312	794.937683	-136.439972	1015.963928	780.951843	-73.832672	1038.729858	724.381165	-158.288055	
3842	15.364000	917.895874	1420.645996	64.208107	981.916016	1358.645874	254.488525	981.849915	1335.666626	-120.600182	1052.077637	1296.102417	68.019981	983.006470	1146.202759	305.694702	1006.334045	1044.274170	313.472839	931.753174	1025.913574	241.964294	959.163391	915.275208	329.032684	1037.622681	824.002625	302.694794	969.267883	809.327942	320.331207	1072.750610	749.452698	321.692352	993.049622	1108.440796	-131.448807	1001.135803	1024.645630	-141.942154	nan	nan	nan	982.079407	876.232788	-108.717339	1049.148071	795.137329	-136.409790	1016.106873	781.101074	-73.790710	1038.947510	724.560730	-158.238037	
3843	15.368000	917.882019	1420.750122	64.370201	981.928528	1358.615845	254.579666	981.563110	1335.747803	-120.510468	1051.945557	1296.090332	68.038765	983.056213	1146.252686	305.846527	1006.352661	1044.222290	313.506531	931.734924	1025.885498	242.031357	959.175049	915.230530	329.062164	1037.626221	823.963867	302.705292	969.269836	809.277649	320.341003	1072.743652	749.384460	321.699860	992.660156	1108.521240	-131.454605	1000.728943	1024.718262	-141.961395	nan	nan	nan	981.998535	876.280334	-108.687103	1049.252197	795.351318	-136.388870	1016.284912	781.250244	-73.735703	1039.184326	724.731750	-158.185898	
3844	15.372000	917.875549	1420.860718	64.540199	981.943848	1358.582153	254.663254	981.284058	1335.831299	-120.425339	1051.809937	1296.077759	68.051208	983.014343	1146.099243	305.763885	1006.366516	1044.175049	313.543274	931.715698	1025.858643	242.090942	959.188232	915.183777	329.087646	1037.631714	823.920898	302.709259	969.275146	809.230896	320.346954	1072.728760	749.321228	321.703125	992.268677	1108.590210	-131.460190	1000.317078	1024.798462	-141.980621	nan	nan	nan	981.921570	876.334961	-108.665031	1049.379883	795.574890	-136.368790	1016.478638	781.417603	-73.698578	1039.436279	724.917969	-158.139359	
